# xmcd
#
# Track frame offsets: 
#        150
#        31084
#        53394
#        91962
#        133065
#        176910
#        212107
#        257994
#        288710
#
# Disc length: 3982 seconds
#
# Revision: 0
# Processed by: cddbd v1.5.2PL0 Copyright (c) Steve Scherf et al.
# Submitted via: ExactAudioCopy v1.3
#
DISCID=830f8c09
DTITLE=Anthony Sherrod with the Cornlickers - Red's Juke Joint Session
DTITLE=s
DYEAR=2014
DGENRE=Blues
TTITLE0=Look Over Yonder Wall
TTITLE1=Done Got Lonesome Here
TTITLE2=Hey Baby, I Wanna Know
TTITLE3=You Don't Love Me
TTITLE4=You Don't Love Me
TTITLE5=Ghetto Woman
TTITLE6=Ain't No Midnight Train (Dingo Blues Remix)
TTITLE7=Have You Ever Been Mistreated
TTITLE8=Got Something On My Shoulder
EXTD=
EXTT0=
EXTT1=
EXTT2=
EXTT3=
EXTT4=
EXTT5=
EXTT6=
EXTT7=
EXTT8=
PLAYORDER=
